<?xml version="1.0" encoding="UTF-8"?>
<svg width="70px" height="88px" viewBox="0 0 70 88" version="1.1" xmlns="http://www.w3.org/2000/svg" xmlns:xlink="http://www.w3.org/1999/xlink">
    <!-- Generator: Sketch 43.2 (39069) - http://www.bohemiancoding.com/sketch -->
    <title>Group</title>
    <desc>Created with Sketch.</desc>
    <defs></defs>
    <g id="Page-1" stroke="none" stroke-width="1" fill="none" fill-rule="evenodd">
        <g id="Group" fill="#000000">
            <path d="M6.214,0.412094857 C4.444,0.763094857 -1.13686838e-13,5.04809486 -1.13686838e-13,6.40409486 C-1.13686838e-13,6.85809486 2.313,10.3090949 7.099,16.9960949 C8.95,19.5810949 11.232,22.7760949 12.172,24.0960949 C17.825,32.0360949 21.419,36.5630949 28.698,44.9090949 C34.997,52.1320949 38.8,56.8660949 38.8,57.4850949 C38.8,57.5460949 38.463,57.5980949 38.05,57.6000949 C34.031,57.6240949 34.872,60.1390949 39.837,62.9500949 C44.642,65.6700949 53.643,74.5810949 61.339,84.2360949 C62.365,85.5230949 63.403,86.7160949 63.646,86.8860949 C65.069,87.8830949 68.444,86.2530949 69.427,84.0960949 C70.28,82.2220949 69.338,77.9930949 68.221,78.6830949 C68.113,78.7500949 67.741,78.3920949 67.394,77.8870949 C67.047,77.3830949 65.77,75.6490949 64.556,74.0330949 C63.342,72.4180949 60.506,68.3060949 58.253,64.8960949 C50.524,53.1930949 45.172,45.2570949 41.797,40.4960949 C38.141,35.3390949 35.296,30.8000949 34.825,29.3710949 C34.359,27.9600949 33.32,27.4880949 31.975,28.0770949 C31.723,28.1870949 31.492,27.9330949 30.954,26.9540949 C30.002,25.2210949 23.573,16.0660949 15.956,5.59609486 C14.876,4.11109486 13.701,2.49509486 13.346,2.00509486 C12.29,0.549094857 11.427,0.213094857 9.3,0.429094857 C9.08,0.451094857 8.495,0.417094857 8,0.352094857 C7.505,0.288094857 6.701,0.315094857 6.214,0.412094857 M10.863,1.42909486 C11.391,1.71009486 11.262,1.54409486 14.036,5.49609486 C15.271,7.25609486 17.821,10.8560949 19.703,13.4960949 C21.585,16.1360949 23.65,19.0610949 24.293,19.9960949 C25.801,22.1890949 29.756,27.4350949 30.774,28.5940949 C31.552,29.4780949 31.569,29.4860949 31.974,29.1200949 C32.527,28.6190949 33.313,28.8200949 33.485,29.5060949 C33.768,30.6340949 35.86,34.6050949 37.115,36.3960949 C41.282,42.3440949 50.058,55.3640949 56.933,65.8000949 C60.787,71.6490949 63.84,75.8400949 66.234,78.5650949 C68.533,81.1820949 68.502,81.1330949 68.481,82.1130949 C68.457,83.2260949 68.269,83.4230949 67.793,82.8360949 C67.327,82.2620949 65.565,80.7960949 65.34,80.7960949 C65.091,80.7960949 65.94,81.9690949 66.958,83.0310949 C67.891,84.0030949 67.952,84.3940949 67.232,84.7790949 C66.897,84.9580949 66.734,84.8530949 66.086,84.0420949 C65.12,82.8330949 61.593,79.3360949 61.467,79.4620949 C61.243,79.6860949 64.024,83.3960949 65.381,84.6830949 C66.237,85.4960949 65.867,86.1960949 64.581,86.1960949 C64.493,86.1960949 63.59,85.1060949 62.575,83.7740949 C55.519,74.5160949 46.395,65.2290949 40.918,61.7290949 C37.398,59.4800949 37.275,59.2960949 39.296,59.2960949 C42.397,59.2960949 40.646,56.4310949 29.699,43.5960949 C21.103,33.5180949 20.064,32.1890949 11.089,19.7960949 C1.282,6.25309486 1.42,6.48009486 2.423,5.49609486 L3.036,4.89609486 L3.868,5.88909486 C9.276,12.3420949 11.371,14.1720949 12.001,12.9950949 C12.371,12.3030949 10.29,8.06309486 9.012,6.90709486 C8.391,6.34509486 8.509,6.71509486 10.083,10.2460949 C10.841,11.9480949 10.505,11.7030949 7.487,8.34609486 C5.979,6.66809486 4.487,5.06409486 4.173,4.78109486 C3.45,4.13209486 3.456,4.01209486 4.25,3.25709486 C5,2.54409486 6.209,1.90909486 7.162,1.72809486 C7.927,1.58109486 7.814,1.48309486 10.5,4.65209486 C13.117,7.74009486 13.252,7.22309486 10.79,3.54009486 C9.636,1.81209486 9.476,1.47509486 9.762,1.36009486 C10.253,1.16309486 10.378,1.17009486 10.863,1.42909486 M14.733,10.7290949 C14.437,11.0250949 14.677,11.4460949 16.437,13.7210949 C17.448,15.0270949 18.755,16.9440949 19.342,17.9810949 C21.035,20.9690949 23.582,24.3510949 23.752,23.8390949 C23.896,23.4090949 21.786,19.6780949 20.109,17.3960949 C19.179,16.1310949 18.084,14.4380949 17.675,13.6330949 C16.783,11.8770949 15.174,10.2890949 14.733,10.7290949 M14.8,15.6690949 C14.8,16.1560949 16.882,18.5980949 17.66,19.0240949 C18.255,19.3490949 17.194,17.4580949 16.157,16.3460949 C15.27,15.3930949 14.8,15.1590949 14.8,15.6690949 M12.8,16.5190949 C12.8,17.2440949 15.594,20.3380949 17.373,21.5850949 C18.521,22.3890949 17.173,20.4370949 14.707,17.7260949 C13.34,16.2220949 12.8,15.8800949 12.8,16.5190949 M20.095,23.2050949 C19.92,23.4880949 20.537,24.3960949 20.905,24.3960949 C21.263,24.3960949 21.302,23.5780949 20.96,23.2360949 C20.664,22.9400949 20.267,22.9260949 20.095,23.2050949 M16.693,24.0070949 C16.436,24.4230949 16.814,25.1790949 17.741,26.1060949 C18.829,27.1930949 19.033,27.0390949 18.329,25.6620949 C17.61,24.2550949 16.952,23.5890949 16.693,24.0070949 M23.8,27.0590949 C23.8,27.7270949 24.626,28.8830949 25.157,28.9600949 C25.763,29.0470949 25.736,28.5130949 25.092,27.6680949 C24.354,26.7000949 23.8,26.4390949 23.8,27.0590949 M21.4,29.2040949 C21.4,29.9460949 22.525,31.4520949 27.394,37.2260949 C29.096,39.2450949 31.586,42.2010949 32.926,43.7960949 C36.663,48.2410949 37.599,48.9770949 37.757,47.5940949 C37.847,46.8010949 34.381,41.1960949 33.799,41.1960949 C33.663,41.1960949 33.662,41.3100949 33.799,41.5460949 C34.109,42.0850949 35.192,44.5960949 35.114,44.5960949 C35.075,44.5960949 34.202,43.5840949 33.173,42.3460949 C23.419,30.6170949 21.4,28.3630949 21.4,29.2040949 M26.67,31.1010949 C26.595,31.2980949 26.925,31.7760949 27.603,32.4510949 C28.18,33.0260949 29.503,34.5090949 30.542,35.7460949 C32.607,38.2040949 33.178,38.5990949 32.223,36.9060949 C29.952,32.8830949 27.122,29.9240949 26.67,31.1010949 M34,37.2070949 C34,37.6740949 37.379,42.2310949 38.278,42.9780949 C38.73,43.3530949 38.684,43.1490949 38.018,41.8400949 C36.673,39.1950949 34,36.1130949 34,37.2070949 M43.294,48.5440949 C43.512,49.4110949 49.011,56.5960949 49.457,56.5960949 C49.814,56.5960949 47.907,53.6000949 45.35,50.1460949 C43.768,48.0090949 43.012,47.4200949 43.294,48.5440949 M43.045,54.5070949 C42.173,55.1180949 42.685,56.4980949 44.372,58.0810949 C45.312,58.9640949 45.335,58.5820949 44.442,56.9270949 C43.647,55.4520949 43.622,54.9960949 44.34,54.9960949 C44.73,54.9960949 44.653,54.6390949 44.213,54.4030949 C43.7,54.1280949 43.569,54.1400949 43.045,54.5070949 M48.4,59.5600949 C48.4,59.9970949 49.004,60.8080949 52.862,65.5530949 C56.036,69.4570949 56.171,69.5940949 55.694,68.4460949 C54.36,65.2350949 48.4,57.9740949 48.4,59.5600949 M45.403,60.7320949 C45.406,61.2100949 49.461,66.2510949 51.5,68.3130949 C53.072,69.9030949 54.226,70.5820949 54.908,70.3210949 C55.403,70.1310949 55.264,69.5740949 54.75,69.6850949 C54.373,69.7670949 53.897,69.3120949 51.8,66.8670949 C46.13,60.2540949 45.394,59.5480949 45.403,60.7320949" id="path0"></path>
        </g>
    </g>
</svg>