<?xml version="1.0" encoding="UTF-8"?>
<svg width="46px" height="80px" viewBox="0 0 46 80" version="1.1" xmlns="http://www.w3.org/2000/svg" xmlns:xlink="http://www.w3.org/1999/xlink">
    <!-- Generator: Sketch 43.2 (39069) - http://www.bohemiancoding.com/sketch -->
    <title>path0</title>
    <desc>Created with Sketch.</desc>
    <defs></defs>
    <g id="Page-1" stroke="none" stroke-width="1" fill="none" fill-rule="evenodd">
        <path d="M17.751,0.201 C2.732,1.038 0.095,2.941 0.457,12.682 C0.934,25.495 7.388,34.675 17.566,37.013 C20.545,37.698 20.432,37.524 20.814,42 C21.19,46.417 20.683,52.883 19.689,56.326 C18.096,61.846 13.763,67.349 10.122,68.479 C2.736,70.77 4.237,76.32 12.8,78.379 C21.978,80.587 36.259,79.047 39.36,75.515 C41.996,72.513 40.058,69.865 34.2,68.467 C31.81,67.896 31.53,67.694 29.267,64.9 C26.563,61.562 26.018,58.78 26.006,48.234 C25.995,38.892 26.233,37.842 28.463,37.404 C37.265,35.675 42.911,29.767 44.903,20.201 C45.656,16.584 46.222,8.533 45.859,6.605 C45.071,2.421 31.874,-0.585 17.751,0.201 M23.839,1.404 C31.183,1.774 38.889,3.431 43.073,5.54 L44.046,6.03 L43.96,7.216 C43.776,9.76 41.001,11.962 35.5,13.928 C33.541,14.628 34.139,14.831 36.571,14.292 C39.492,13.644 41.889,12.605 43.567,11.258 L44.234,10.723 L44.104,13.111 C43.64,21.647 42.43,25.889 39.355,29.755 C32.836,37.954 16.246,38.449 8.77,30.668 C4.372,26.09 1.677,19.23 1.831,13.005 C1.916,9.56 2.019,9.402 3.336,10.686 C5.696,12.985 9.368,13.988 15.45,13.996 C20.184,14.002 19.637,13.7 13.283,12.8 C6.243,11.802 2.8,9.899 2.8,7.004 C2.8,4.269 5.718,2.871 13.27,1.987 C15.266,1.753 17.26,1.49 17.7,1.403 C18.841,1.176 19.307,1.176 23.839,1.404 M18.6,2.937 C12.178,3.414 5.189,5.084 5.033,6.18 C4.517,9.793 9.758,11.73 21.308,12.196 C33.929,12.704 40.725,11.347 41.14,8.234 C41.567,5.034 29.273,2.144 18.6,2.937 M29.21,5.109 C30.469,5.284 33.001,5.737 34.835,6.114 C36.67,6.491 38.343,6.8 38.554,6.8 C39.812,6.8 39.915,8.456 38.7,9.141 C36.152,10.576 32.391,10.868 22.2,10.422 C12.891,10.014 8.363,9.102 6.876,7.335 C6.244,6.584 6.277,6.564 9,6.027 C16.052,4.634 23.397,4.301 29.21,5.109 M23.6,14.822 C23.123,15.032 23.118,15.05 23.5,15.207 C24.489,15.615 27.107,15.337 26.398,14.899 C26.003,14.654 24.099,14.602 23.6,14.822 M35.033,16.012 C34.445,16.248 34.567,16.681 35.245,16.761 C35.848,16.833 37.2,16.314 37.2,16.01 C37.2,15.753 35.676,15.755 35.033,16.012 M39.7,16.613 C37.997,17.285 35.171,17.978 33.57,18.118 C31.691,18.282 31.357,18.443 31.858,18.943 C32.702,19.787 36.818,19.266 39.664,17.956 C42.225,16.777 42.256,15.605 39.7,16.613 M37.2,20.28 C36.166,20.581 33.363,21.308 32.55,21.487 C31.741,21.664 31.879,22.121 32.813,22.358 C33.796,22.607 36.648,21.925 38.236,21.061 C39.766,20.229 39.1,19.727 37.2,20.28 M33.495,24.175 C31.494,24.668 31.089,25.016 32.079,25.392 C33.045,25.759 36.4,24.753 36.4,24.095 C36.4,23.699 35.308,23.729 33.495,24.175 M31.226,27.322 C30.8,27.622 30.786,27.676 31.088,27.845 C31.904,28.302 34.134,27.905 33.946,27.336 C33.817,26.944 31.776,26.933 31.226,27.322 M33.1,29.508 C32.33,29.653 30.89,29.835 29.9,29.913 C27.657,30.088 27.012,30.468 28.109,30.968 C29.741,31.711 34.987,30.556 34.998,29.45 C35,29.159 34.948,29.161 33.1,29.508 M30.547,32.319 C30.482,32.385 29.77,32.497 28.966,32.569 C27.237,32.724 26.851,33.188 28.107,33.602 C29.21,33.966 31.6,33.142 31.6,32.397 C31.6,32.185 30.745,32.122 30.547,32.319 M24.908,39.05 C24.501,42.592 24.41,44.288 24.406,48.5 C24.392,61.084 25.624,64.466 32.201,69.905 C34.138,71.508 34.315,71.916 33.447,72.784 C31.878,74.353 23.632,75.306 18.637,74.496 C14.526,73.83 8.891,71.342 10.368,70.845 C12.834,70.015 18.17,64.005 20.2,59.77 C22.045,55.919 23.276,44.374 22.283,40.223 C22.135,39.605 22.011,38.808 22.007,38.45 L22,37.8 L23.526,37.8 L25.052,37.8 L24.908,39.05 M22.71,62.584 C22.537,62.864 23.171,63.4 23.676,63.4 C24.258,63.4 24.901,62.925 24.719,62.63 C24.55,62.357 22.874,62.318 22.71,62.584 M21.65,64.563 C20.872,64.638 20.801,65.045 21.509,65.368 C22.665,65.895 26.2,65.46 26.2,64.791 C26.2,64.408 24.262,64.311 21.65,64.563 M22.3,67.309 C21.42,67.452 20.678,67.577 20.65,67.585 C20.402,67.66 20.698,68.206 21.05,68.323 C22.356,68.757 27.035,68.009 27.163,67.346 C27.246,66.914 24.835,66.895 22.3,67.309 M24.725,69.894 C23.761,70.238 23.511,70.479 23.676,70.909 C23.915,71.533 27.421,70.645 27.565,69.924 C27.648,69.504 25.87,69.486 24.725,69.894 M35.817,70.221 C39.558,71.447 40.284,73.26 37.879,75.377 C35.605,77.378 22.271,78.643 15.6,77.489 C9.904,76.505 5.723,74.052 6.461,72.128 C6.723,71.447 9.096,70.128 9.156,70.63 C9.281,71.677 9.427,71.98 10.138,72.671 C14.6,77.005 28.953,77.631 34.263,73.724 C35.517,72.801 35.827,70.952 34.85,70.223 C34.156,69.705 34.244,69.705 35.817,70.221 M26.435,71.705 C25.572,72.079 25.629,72.673 26.537,72.762 C27.288,72.835 28.8,72.123 28.8,71.696 C28.8,71.304 27.345,71.309 26.435,71.705" id="path0" fill="#000000"></path>
    </g>
</svg>