<?xml version="1.0" encoding="UTF-8"?>
<svg width="73px" height="73px" viewBox="0 0 73 73" version="1.1" xmlns="http://www.w3.org/2000/svg" xmlns:xlink="http://www.w3.org/1999/xlink">
    <!-- Generator: Sketch 43.2 (39069) - http://www.bohemiancoding.com/sketch -->
    <title>path0</title>
    <desc>Created with Sketch.</desc>
    <defs></defs>
    <g id="Page-1" stroke="none" stroke-width="1" fill="none" fill-rule="evenodd">
        <path d="M33.3154678,0.165425115 C5.72446776,2.41942511 -9.21253224,33.4224251 6.19446776,56.4544251 C20.9494678,78.5114251 54.3154678,77.3914251 67.4734678,54.3984251 C80.7804678,31.1444251 65.3864678,2.10242511 38.7194678,0.150425115 C35.9384678,-0.0525748855 35.9874678,-0.0525748855 33.3154678,0.165425115 M43.2204678,1.83242511 C72.8304678,8.10942511 81.3514678,46.2414251 57.1984678,64.3794251 C36.0324678,80.2754251 5.21946776,67.5444251 1.40746776,41.3284251 C-2.07853224,17.3534251 19.6434678,-3.16557489 43.2204678,1.83242511 M31.2844678,4.04942511 C4.83546776,8.34842511 -5.65953224,40.3834251 13.1984678,59.2534251 C30.3214678,76.3864251 59.4234678,69.4584251 67.0874678,46.4254251 C74.6614678,23.6604251 54.8544678,0.217425115 31.2844678,4.04942511 M40.3474678,5.04842511 C43.3654678,5.45042511 45.6984678,6.10142511 45.6984678,6.54142511 C45.6984678,6.73042511 45.4694678,7.55242511 45.1894678,8.36942511 C44.4784678,10.4434251 42.6544678,17.5264251 42.7574678,17.8154251 C42.8744678,18.1464251 44.9204678,11.7674251 45.6194678,8.89142511 L46.1934678,6.52742511 L46.8924678,6.65842511 C48.2844678,6.92042511 48.5764678,7.39642511 48.1064678,8.63442511 C47.7594678,9.54542511 48.2494678,9.37742511 48.6284678,8.45442511 C49.0114678,7.52442511 49.2874678,7.35942511 49.6754678,7.82642511 C49.8454678,8.03142511 49.8264678,8.27842511 49.5994678,8.82042511 C49.0404678,10.1594251 49.5344678,10.2384251 50.2164678,8.91942511 C50.3774678,8.60842511 50.5984678,8.35442511 50.7074678,8.35442511 C51.2414678,8.35442511 57.4984678,12.7004251 57.4984678,13.0714251 C57.4984678,13.1234251 56.1994678,14.5794251 54.6104678,16.3064251 C50.5664678,20.7034251 51.3034678,20.4904251 56.0284678,15.8964251 C58.2544678,13.7324251 59.4844678,13.1584251 57.6164678,15.1554251 C57.1114678,15.6954251 56.6984678,16.1864251 56.6984678,16.2454251 C56.6984678,16.5294251 57.1124678,16.2774251 58.0134678,15.4444251 L58.9984678,14.5334251 L59.6684678,15.2944251 C64.1434678,20.3774251 66.8134678,26.5884251 67.5054678,33.5254251 C67.7674678,36.1594251 67.6834678,36.7504251 67.0444678,36.7634251 C66.7994678,36.7684251 66.3284678,36.9034251 65.9984678,37.0634251 C65.4024678,37.3524251 65.4054678,37.3534251 66.4484678,37.2834251 C67.8424678,37.1904251 67.7864678,37.4454251 66.3484678,37.7314251 C64.5144678,38.0974251 64.3384678,38.4064251 66.0484678,38.2574251 L67.4984678,38.1304251 L67.4984678,39.0264251 C67.4984678,40.2564251 67.3474678,40.5554251 66.7274678,40.5504251 C65.6274678,40.5434251 60.4984678,41.2354251 60.4984678,41.3914251 C60.4984678,41.5974251 63.7524678,41.5854251 65.5984678,41.3724251 C67.3884678,41.1654251 67.3174678,41.0754251 66.8864678,43.0034251 C66.0454678,46.7644251 64.5564678,50.2804251 62.3984678,53.5994251 L61.2644678,55.3434251 L60.2884678,54.8494251 C59.7514678,54.5774251 59.2124678,54.3544251 59.0914678,54.3544251 C58.7534678,54.3544251 59.6554678,55.5134251 60.1034678,55.6564251 C62.0374678,56.2694251 54.1514678,62.6964251 48.3984678,65.1954251 C45.6584678,66.3854251 45.5834678,66.3864251 45.0944678,65.2444251 C44.6254678,64.1514251 43.5534678,62.5544251 43.2884678,62.5544251 C42.7284678,62.5544251 43.5154678,64.3284251 44.6144678,65.5454251 L45.3124678,66.3184251 L44.6554678,66.5274251 C41.8674678,67.4154251 41.0054678,67.4334251 40.8174678,66.6064251 C40.6034678,65.6604251 39.4224678,62.5544251 39.2764678,62.5544251 C39.1324678,62.5544251 39.7504678,65.6234251 40.0964678,66.6274251 C40.3834678,67.4624251 40.3024678,67.5024251 37.9894678,67.6594251 C33.4134678,67.9714251 24.9704678,66.4574251 25.3984678,65.4014251 C25.6004678,64.9044251 26.0544678,62.2724251 25.9574678,62.1604251 C25.8224678,62.0034251 25.5904678,62.4974251 25.1104678,63.9604251 C24.5644678,65.6254251 24.6144678,65.6174251 22.2444678,64.4294251 C17.8104678,62.2074251 14.0484678,59.1164251 11.1174678,55.2874251 L10.2354678,54.1364251 L10.9174678,53.5334251 C11.6384678,52.8954251 11.4944678,52.8414251 10.1744678,53.2544251 C9.67446776,53.4114251 9.44746776,53.0864251 7.91446776,50.0114251 C6.44346776,47.0594251 6.37846776,47.2694251 9.09846776,46.1624251 C12.5324678,44.7644251 15.2274678,43.4654251 14.8454678,43.3914251 C14.3704678,43.3004251 9.88946776,44.8534251 8.26146776,45.6734251 C6.54746776,46.5364251 6.36046776,46.5304251 6.11346776,45.6044251 C3.51746776,35.8864251 4.55346776,27.8344251 9.44546776,19.7044251 C10.5394678,17.8864251 10.4194678,17.9204251 11.8634678,19.0104251 C13.7504678,20.4334251 16.2984678,21.9444251 16.2984678,21.6404251 C16.2984678,21.4674251 15.6984678,20.9704251 13.2484678,19.1124251 C10.7404678,17.2104251 10.8434678,17.4804251 12.0684678,16.0144251 C14.3094678,13.3344251 17.8594678,10.4224251 21.1224678,8.58642511 C22.4954678,7.81442511 22.6544678,7.80742511 22.8264678,8.50442511 C23.3354678,10.5694251 26.0694678,16.7354251 26.0854678,15.8544251 C26.0974678,15.2414251 24.4104678,10.3654251 23.7014678,8.96042511 C23.3554678,8.27442511 23.1004678,7.68942511 23.1354678,7.65942511 C23.2674678,7.54542511 24.4834678,6.95442511 24.5854678,6.95442511 C24.6444678,6.95442511 24.9774678,7.51742511 25.3264678,8.20442511 C26.0674678,9.66642511 26.2884678,9.48542511 25.7234678,7.87842511 C25.2734678,6.59542511 25.2004678,6.68242511 27.2444678,6.07142511 C31.3094678,4.85742511 36.1024678,4.48342511 40.3474678,5.04842511 M36.1364678,5.77842511 C35.3334678,6.07742511 31.2984678,16.7314251 31.2984678,18.5514251 C31.2984678,19.1104251 30.9754678,19.5544251 30.5684678,19.5544251 C28.4584678,19.5544251 22.1194678,23.6194251 20.5644678,25.9704251 L20.0454678,26.7544251 L16.9214678,26.7584251 C11.6744678,26.7664251 8.38746776,27.2244251 7.70946776,28.0414251 C6.67246776,29.2904251 10.1004678,32.7604251 15.1484678,35.5694251 L16.6984678,36.4324251 L16.6984678,37.6484251 C16.6984678,41.9134251 17.7374678,45.4154251 19.7844678,48.0484251 C21.1054678,49.7474251 21.1094678,49.6644251 19.5024678,53.4584251 C17.6474678,57.8394251 17.0504678,60.4264251 17.7384678,61.1144251 C18.6004678,61.9764251 22.4504678,60.1354251 27.1474678,56.6154251 C29.3834678,54.9404251 29.1494678,54.9904251 31.4454678,55.6824251 C34.2234678,56.5204251 37.6114678,56.4884251 39.7984678,55.6034251 C41.9674678,54.7264251 41.6254678,54.6114251 46.2634678,57.7754251 C50.5314678,60.6874251 51.5164678,61.2814251 52.1994678,61.3564251 C53.5924678,61.5094251 54.1164678,60.9764251 54.1284678,59.3954251 C54.1354678,58.5044251 51.9674678,50.2404251 51.4924678,49.3454251 C51.3764678,49.1274251 51.7674678,48.3284251 52.8114678,46.6454251 C54.7304678,43.5524251 55.1334678,42.3244251 55.1884678,39.4054251 C55.2114678,38.1684251 55.2684678,37.1224251 55.3144678,37.0824251 C55.3604678,37.0424251 56.1634678,36.5754251 57.0984678,36.0464251 C63.1374678,32.6264251 65.9994678,29.9784251 65.6024678,28.1734251 C65.4084678,27.2904251 65.2714678,27.2724251 58.5074678,27.2394251 C53.9414678,27.2174251 52.1954678,27.1454251 52.1394678,26.9774251 C51.3094678,24.4874251 47.6184678,21.5394251 44.1204678,20.5724251 C43.3064678,20.3484251 42.6174678,20.1394251 42.5884678,20.1094251 C42.5584678,20.0794251 42.0244678,18.1644251 41.3994678,15.8544251 C38.8714678,6.50342511 38.1074678,5.04242511 36.1364678,5.77842511 M37.4744678,7.39242511 C38.4084678,8.30542511 38.6404678,8.85342511 39.2114678,11.4984251 C40.4474678,17.2234251 42.6534678,24.8224251 43.5094678,26.3044251 L43.8854678,26.9544251 L42.5984678,26.9544251 C40.9844678,26.9544251 41.1954678,27.3684251 39.6134678,21.1114251 C38.1934678,15.4984251 37.6924678,13.9924251 36.9794678,13.1944251 L36.4974678,12.6544251 L36.1314678,13.0854251 C35.7064678,13.5854251 35.1644678,15.2184251 34.7144678,17.3524251 L34.3984678,18.8544251 L33.3434678,19.0334251 C31.9504678,19.2694251 31.9314678,19.6154251 33.5854678,14.7134251 C34.3894678,12.3314251 35.2484678,9.56542511 35.4954678,8.56842511 C36.0134678,6.46942511 36.3354678,6.27842511 37.4744678,7.39242511 M27.1024678,7.49242511 C27.1084678,7.93642511 27.8684678,9.65142511 28.0014678,9.51842511 C28.1414678,9.37742511 27.5214678,7.39242511 27.2934678,7.25142511 C27.1864678,7.18542511 27.1004678,7.29342511 27.1024678,7.49242511 M37.3784678,16.9544251 C37.6644678,17.9994251 37.8984678,18.9184251 37.8984678,18.9964251 C37.8984678,19.1784251 35.2544678,18.9534251 35.0324678,18.7524251 C34.9404678,18.6694251 35.0414678,18.2534251 35.2544678,17.8284251 C35.4684678,17.4024251 35.8024678,16.5594251 35.9974678,15.9544251 C36.5944678,14.1014251 36.5994678,14.1044251 37.3784678,16.9544251 M14.1084678,18.0974251 C14.1254678,18.3834251 15.9654678,19.7344251 17.1914678,20.3624251 C18.3744678,20.9684251 18.3864678,20.9704251 17.7984678,20.4544251 C16.5614678,19.3704251 14.0894678,17.7914251 14.1084678,18.0974251 M59.7984678,19.5134251 C58.0834678,20.4294251 56.7134678,21.3544251 57.0704678,21.3544251 C57.4084678,21.3544251 60.6404678,19.6754251 61.2984678,19.1564251 C62.1264678,18.5054251 61.3314678,18.6944251 59.7984678,19.5134251 M37.7474678,20.1354251 C38.0994678,20.2684251 38.2774678,20.5594251 38.4374678,21.2554251 L38.6524678,22.1954251 L38.0254678,22.0544251 C36.1794678,21.6394251 35.6884678,21.5714251 34.4984678,21.5664251 C31.0074678,21.5524251 27.5744678,23.0024251 24.5984678,25.7474251 L23.3984678,26.8544251 L22.1494678,26.7864251 C20.4944678,26.6974251 21.2274678,25.7954251 25.0984678,23.1584251 C28.6274678,20.7554251 35.2284678,19.1774251 37.7474678,20.1354251 M45.6984678,22.0794251 C48.7344678,23.6794251 50.0484678,25.1164251 51.8954678,28.8544251 C53.9504678,33.0114251 54.0474678,33.6664251 52.7164678,34.3454251 C51.6704678,34.8784251 51.6984678,34.8904251 51.6984678,33.8964251 C51.6984678,29.7964251 48.0064678,24.9184251 44.3894678,24.2394251 C43.7684678,24.1234251 42.8984678,22.3444251 42.8984678,21.1894251 C42.8984678,20.8774251 44.2074678,21.2934251 45.6984678,22.0794251 M37.7774678,22.9624251 C38.5044678,23.1864251 39.0984678,23.4654251 39.0984678,23.5814251 C39.0984678,23.6974251 39.4134678,24.4564251 39.7984678,25.2684251 C40.1834678,26.0794251 40.4984678,26.7904251 40.4984678,26.8484251 C40.4984678,26.9944251 35.0304678,26.9784251 33.7844678,26.8294251 L32.7704678,26.7074251 L33.1844678,24.8804251 C33.4124678,23.8764251 33.6714678,22.9424251 33.7604678,22.8044251 C34.0144678,22.4114251 36.2834678,22.5014251 37.7774678,22.9624251 M33.0284678,23.0044251 C32.6624678,23.8914251 31.2824678,28.2574251 30.2934678,31.6544251 C29.3094678,35.0374251 28.8284678,36.4204251 27.5364678,39.5944251 C27.4144678,39.8954251 27.3224678,39.8714251 26.7304678,39.3844251 L26.0624678,38.8354251 L26.6664678,36.9444251 C27.3504678,34.8014251 29.9244678,26.2454251 30.4064678,24.5084251 C30.7564678,23.2484251 30.8574678,23.1414251 31.8914678,22.9384251 C32.9804678,22.7254251 33.1394678,22.7344251 33.0284678,23.0044251 M57.2984678,23.5544251 C56.9134678,23.7654251 56.7334678,23.9374251 56.8984678,23.9374251 C57.0634678,23.9374251 57.5134678,23.7654251 57.8984678,23.5544251 C58.2834678,23.3434251 58.4634678,23.1714251 58.2984678,23.1714251 C58.1334678,23.1714251 57.6834678,23.3434251 57.2984678,23.5544251 M29.2434678,25.4264251 L28.7804678,26.7994251 L26.7394678,26.8264251 C25.6164678,26.8424251 24.7014678,26.8094251 24.7044678,26.7544251 C24.7154678,26.5614251 27.1594678,24.8784251 28.3724678,24.2284251 C29.8194678,23.4524251 29.8814678,23.5384251 29.2434678,25.4264251 M45.8484678,25.7954251 C47.5994678,26.9674251 47.6404678,27.1554251 46.1484678,27.1514251 C44.7484678,27.1474251 44.6454678,27.0814251 44.3244678,25.9834251 C44.1844678,25.5044251 44.0164678,24.9724251 43.9504678,24.8004251 C43.8084678,24.4324251 43.8234678,24.4404251 45.8484678,25.7954251 M28.4064678,27.8934251 C28.0074678,29.4834251 27.7904678,29.7324251 26.9654678,29.5484251 C25.9524678,29.3214251 14.9274678,29.2074251 14.3484678,29.4184251 C12.6294678,30.0424251 13.7764678,32.1494251 16.5574678,33.4754251 C17.2394678,33.8004251 17.2404678,33.8004251 17.0454678,34.7274251 C16.7924678,35.9384251 16.8584678,35.9234251 15.7564678,35.0124251 C15.2294678,34.5764251 13.8534678,33.5724251 12.6984678,32.7814251 C6.13746776,28.2904251 6.81846776,27.7554251 19.0984678,27.7564251 C22.5634678,27.7564251 25.9384678,27.6774251 26.5984678,27.5814251 C28.5964678,27.2904251 28.5594678,27.2844251 28.4064678,27.8934251 M42.0804678,27.8624251 L48.3624678,27.9094251 L48.7264678,28.3814251 C49.4164678,29.2794251 49.3764678,29.2864251 43.8484678,29.3124251 C40.9614678,29.3264251 37.1584678,29.4264251 35.3984678,29.5354251 C31.7584678,29.7614251 31.7814678,29.7694251 32.2254678,28.4654251 L32.5544678,27.4994251 L34.1764678,27.6574251 C35.0684678,27.7444251 38.6254678,27.8364251 42.0804678,27.8624251 M64.6984678,28.6924251 C64.6984678,30.0834251 62.2474678,31.9054251 53.9864678,36.6584251 C51.3524678,38.1734251 49.0024678,39.5414251 48.7614678,39.6974251 C48.3394678,39.9734251 47.9014678,39.2384251 47.9004678,38.2544251 C47.9004678,38.1444251 48.7324678,37.6294251 49.7494678,37.1104251 C54.4454678,34.7134251 59.6984678,31.4884251 60.1794678,30.7074251 C60.7994678,29.6984251 57.5484678,29.1054251 54.3534678,29.6454251 C53.5324678,29.7834251 52.8984678,29.2274251 52.8984678,28.3674251 C52.8984678,28.2334251 54.6154678,28.1414251 57.8484678,28.1044251 C60.5714678,28.0724251 63.2264678,28.0264251 63.7484678,28.0004251 L64.6984678,27.9544251 L64.6984678,28.6924251 M50.2564678,31.5234251 C50.6274678,32.4394251 50.9794678,33.6564251 51.0384678,34.2274251 L51.1454678,35.2654251 L50.1714678,35.8044251 C49.6364678,36.1014251 48.8294678,36.5684251 48.3774678,36.8424251 L47.5574678,37.3424251 L46.4064678,33.8364251 C45.7734678,31.9074251 45.2884678,30.3014251 45.3274678,30.2674251 C45.4204678,30.1844251 48.9114678,29.8014251 49.2894678,29.8324251 C49.4584678,29.8464251 49.8654678,30.5584251 50.2564678,31.5234251 M18.2844678,30.2844251 C18.3574678,30.3484251 17.5394678,32.9224251 17.3824678,33.1224251 C17.0664678,33.5264251 14.4104678,30.8164251 14.6114678,30.2934251 C14.7224678,30.0034251 17.9524678,29.9954251 18.2844678,30.2844251 M21.6794678,30.4774251 C21.7234678,30.5174251 21.4804678,31.1584251 21.1394678,31.9014251 C19.5094678,35.4524251 19.7654678,40.2144251 21.8034678,44.2754251 L22.6244678,45.9124251 L22.0304678,47.4334251 C21.3044678,49.2924251 21.3634678,49.2924251 20.3014678,47.4364251 C18.3914678,44.0974251 17.4804678,39.9084251 17.8824678,36.3044251 C18.1204678,34.1704251 18.9884678,30.5464251 19.3084678,30.3484251 C19.5144678,30.2204251 21.5134678,30.3294251 21.6794678,30.4774251 M59.2024678,30.5924251 C59.2724678,30.6614251 58.7144678,31.0544251 57.9634678,31.4654251 C57.2124678,31.8774251 56.1204678,32.4804251 55.5364678,32.8054251 C54.9524678,33.1314251 54.4484678,33.3654251 54.4164678,33.3254251 C54.2744678,33.1514251 53.6974678,30.5184251 53.7744678,30.3934251 C53.8774678,30.2254251 59.0244678,30.4134251 59.2024678,30.5924251 M27.4954678,30.5044251 C27.4724678,31.5354251 25.5434678,38.1544251 25.2644678,38.1544251 C24.8644678,38.1544251 21.3154678,35.5244251 21.1924678,35.1354251 C21.0114678,34.5654251 21.4514678,32.8584251 22.1284678,31.5044251 L22.7044678,30.3544251 L25.1014678,30.3544251 C26.4194678,30.3544251 27.4974678,30.4224251 27.4954678,30.5044251 M43.0344678,34.6544251 C44.8924678,40.0904251 44.9194678,39.6414251 42.6484678,41.0354251 C41.6314678,41.6604251 39.5654678,43.0264251 38.0574678,44.0714251 L35.3164678,45.9704251 L31.9084678,43.3444251 C27.8204678,40.1954251 28.1744678,40.7434251 28.9964678,38.8364251 C29.3704678,37.9664251 30.0964678,35.8144251 30.6084678,34.0544251 C31.1204678,32.2944251 31.6154678,30.7604251 31.7094678,30.6454251 C31.8204678,30.5094251 33.5864678,30.4394251 36.7394678,30.4454251 L41.5984678,30.4544251 L43.0344678,34.6544251 M44.5884678,30.6044251 C44.6314678,30.7424251 45.1294678,32.5194251 45.6954678,34.5544251 C46.2604678,36.5894251 47.2164678,39.6944251 47.8184678,41.4544251 C49.2614678,45.6724251 49.2384678,45.5164251 48.5414678,46.3434251 L47.9614678,47.0324251 L47.5194678,45.5434251 C46.1554678,40.9374251 43.9794678,34.2294251 43.3724678,32.7544251 C42.3034678,30.1574251 42.2944678,30.3544251 43.4814678,30.3544251 C44.1304678,30.3544251 44.5394678,30.4464251 44.5884678,30.6044251 M26.0354678,40.1064251 C28.4754678,41.9814251 31.4004678,44.1264251 32.5354678,44.8724251 C33.6694678,45.6194251 34.6424678,46.2654251 34.6954678,46.3064251 C34.8304678,46.4114251 33.8764678,47.1124251 33.4454678,47.2254251 C33.0304678,47.3344251 32.2014678,46.7844251 27.5984678,43.3474251 C23.5514678,40.3254251 21.9634678,39.2864251 21.6004678,39.4264251 C21.2224678,39.5714251 21.0984678,39.1224251 21.0984678,37.6134251 C21.0984678,36.5954251 21.1534678,36.3494251 21.3484678,36.5024251 C21.4864678,36.6104251 23.5944678,38.2324251 26.0354678,40.1064251 M54.4984678,38.0404251 C54.4984678,40.6404251 53.4384678,44.9284251 52.4784678,46.2074251 C49.0964678,50.7154251 45.1424678,53.1794251 43.5074678,51.7974251 L42.8174678,51.2134251 L44.1874678,50.5594251 C46.2324678,49.5834251 50.4304678,45.2914251 51.5794678,43.0014251 C52.2054678,41.7544251 52.7104678,39.8904251 52.6454678,39.0674251 C52.6054678,38.5714251 52.7224678,38.4084251 53.3984678,38.0204251 C54.4054678,37.4424251 54.4984678,37.4444251 54.4984678,38.0404251 M51.6984678,39.5604251 C51.6984678,40.2534251 50.7134678,42.9114251 50.0704678,43.9544251 L49.6384678,44.6544251 L49.1434678,42.7764251 C48.7334678,41.2214251 48.6954678,40.8714251 48.9234678,40.7414251 C49.0744678,40.6544251 49.6874678,40.2174251 50.2844678,39.7694251 C51.5844678,38.7934251 51.6984678,38.7774251 51.6984678,39.5604251 M22.2134678,40.4044251 C22.6274678,40.7624251 23.2284678,41.2804251 23.5484678,41.5574251 L24.1294678,42.0604251 L23.7454678,43.0574251 C23.5344678,43.6054251 23.2984678,44.2294251 23.2214678,44.4444251 C23.0124678,45.0214251 21.2984678,40.8884251 21.2984678,39.8084251 C21.2984678,39.6624251 21.5234678,39.8094251 22.2134678,40.4044251 M45.1904678,41.3904251 C45.6154678,42.8204251 45.6294678,42.7854251 44.3884678,43.4344251 C43.0024678,44.1584251 39.1944678,46.6424251 36.6944678,48.4534251 C31.9914678,51.8604251 32.2744678,51.7264251 30.8344678,51.2354251 C30.0154678,50.9564251 29.5674678,50.5544251 30.0754678,50.5544251 C30.5754678,50.5544251 40.7784678,43.5104251 43.1214678,41.5484251 C44.8484678,40.1024251 44.8094678,40.1054251 45.1904678,41.3904251 M25.3324678,42.8854251 C25.8634678,43.3654251 25.8474678,43.4434251 24.1144678,48.7784251 C21.9944678,55.3044251 21.9884678,55.3244251 22.2454678,55.5814251 C22.6354678,55.9714251 23.6814678,55.5404251 24.7784678,54.5384251 C26.0324678,53.3914251 26.0014678,53.3974251 27.3414678,54.0764251 L28.3714678,54.5984251 L27.8844678,54.9784251 C25.6064678,56.7594251 18.8054678,60.8444251 18.4664678,60.6344251 C17.8874678,60.2764251 18.4314678,58.5094251 21.0474678,52.2544251 C22.9534678,47.6964251 24.0814678,44.6434251 24.3904678,43.2044251 C24.5464678,42.4784251 24.7914678,42.3954251 25.3324678,42.8854251 M46.4594678,45.1074251 C46.8224678,46.0684251 47.1604678,46.9894251 47.2094678,47.1544251 C47.4104678,47.8244251 42.7804678,50.7184251 41.8724678,50.4914251 C41.4014678,50.3724251 39.0984678,48.4534251 39.0984678,48.1794251 C39.0984678,48.1004251 39.7874678,47.5454251 40.6294678,46.9454251 C41.4704678,46.3454251 42.9334678,45.3004251 43.8794678,44.6244251 C44.8244678,43.9474251 45.6434678,43.3864251 45.6984678,43.3774251 C45.7534678,43.3684251 46.0954678,44.1474251 46.4594678,45.1074251 M30.4494678,46.4534251 C32.5584678,47.7554251 32.6824678,47.8854251 32.1704678,48.2544251 C31.9654678,48.4024251 31.1604678,48.9754251 30.3804678,49.5294251 L28.9624678,50.5364251 L27.7804678,49.9664251 C27.1304678,49.6534251 26.3124678,49.1404251 25.9634678,48.8254251 L25.3284678,48.2544251 L25.9034678,46.0544251 C26.2204678,44.8444251 26.4834678,43.8294251 26.4884678,43.7984251 C26.4944678,43.7664251 26.9704678,44.0944251 27.5484678,44.5254251 C28.1264678,44.9574251 29.4314678,45.8244251 30.4494678,46.4534251 M12.7984678,46.1624251 C12.1384678,46.3744251 11.2384678,46.7804251 10.7984678,47.0644251 L9.99846776,47.5814251 L10.6984678,47.4654251 C11.4684678,47.3374251 14.7804678,45.7884251 14.2984678,45.7814251 C14.1334678,45.7784251 13.4584678,45.9504251 12.7984678,46.1624251 M61.8984678,46.5324251 C61.8984678,46.8404251 63.4664678,47.3544251 64.4024678,47.3544251 C65.6834678,47.3544251 65.5084678,47.0554251 64.0074678,46.6784251 C62.5584678,46.3144251 61.8984678,46.2694251 61.8984678,46.5324251 M55.2984678,47.1184251 C55.2984678,47.5424251 58.2834678,49.1514251 60.3684678,49.8504251 C62.5734678,50.5914251 63.0994678,50.4894251 61.4494678,49.6424251 C59.6784678,48.7334251 55.2984678,46.9364251 55.2984678,47.1184251 M38.8514678,49.3334251 C39.6544678,50.4194251 45.4724678,54.5404251 48.0434678,55.8434251 C48.8384678,56.2464251 49.5414678,56.6614251 49.6054678,56.7654251 C49.8124678,57.1014251 50.6764678,56.9684251 50.8914678,56.5674251 C51.3494678,55.7124251 50.9014678,52.9724251 50.0744678,51.5704251 C49.6794678,50.8984251 49.6784678,50.8764251 50.0474678,50.3824251 C50.6574678,49.5654251 50.8294678,49.6674251 51.0874678,50.9964251 C51.2224678,51.6884251 51.6914678,53.3644251 52.1314678,54.7214251 C53.2884678,58.2934251 53.4154678,60.3544251 52.4774678,60.3544251 C51.7694678,60.3544251 49.3374678,59.0314251 47.8754678,57.8494251 C47.1054678,57.2274251 44.3434678,55.2864251 41.7374678,53.5364251 C36.3254678,49.9024251 36.3654678,49.9404251 37.1984678,49.2594251 C37.9844678,48.6164251 38.3324678,48.6314251 38.8514678,49.3334251 M26.4994678,50.2684251 C30.0584678,52.5714251 33.8294678,53.4894251 37.0584678,52.8384251 L38.6274678,52.5224251 L39.7544678,53.2884251 C40.3744678,53.7094251 40.8574678,54.1404251 40.8264678,54.2454251 C40.5904678,55.0594251 34.9254678,55.4894251 32.4254678,54.8824251 C30.5824678,54.4354251 25.4964678,52.4274251 24.8004678,51.8724251 L24.2424678,51.4274251 L24.5864678,50.3904251 C24.9994678,49.1474251 24.7874678,49.1614251 26.4994678,50.2684251 M36.8144678,51.0784251 C37.9794678,52.0324251 37.9354678,52.1544251 36.4264678,52.1544251 C34.9494678,52.1544251 33.2974678,51.9544251 33.3014678,51.7774251 C33.3044678,51.6434251 35.4924678,50.3934251 35.7644678,50.3694251 C35.8564678,50.3614251 36.3284678,50.6804251 36.8144678,51.0784251 M49.7674678,53.0104251 C50.3334678,55.6724251 50.1144678,56.5674251 49.1144678,55.6714251 C48.9404678,55.5164251 48.0144678,54.8554251 47.0564678,54.2024251 L45.3134678,53.0154251 L46.4564678,52.6974251 C47.0844678,52.5224251 47.9584678,52.1084251 48.3984678,51.7784251 C49.3584678,51.0594251 49.3514678,51.0524251 49.7674678,53.0104251 M24.5894678,52.5864251 C24.8694678,52.7144251 25.0984678,52.9244251 25.0984678,53.0524251 C25.0984678,53.3084251 23.3294678,54.6524251 23.1844678,54.5074251 C23.0954678,54.4184251 23.8924678,52.3544251 24.0154678,52.3544251 C24.0504678,52.3544251 24.3084678,52.4584251 24.5894678,52.5864251 M39.2984678,58.2204251 C39.2984678,58.8154251 40.0944678,60.7834251 41.2194678,62.9684251 C42.9794678,66.3874251 43.0844678,66.0394251 41.4944678,62.0544251 C39.7504678,57.6814251 39.2984678,56.8934251 39.2984678,58.2204251" id="path0" fill="#000000"></path>
    </g>
</svg>