<?xml version="1.0" encoding="UTF-8"?>
<svg width="76px" height="90px" viewBox="0 0 76 90" version="1.1" xmlns="http://www.w3.org/2000/svg" xmlns:xlink="http://www.w3.org/1999/xlink">
    <!-- Generator: Sketch 43.2 (39069) - http://www.bohemiancoding.com/sketch -->
    <title>path0</title>
    <desc>Created with Sketch.</desc>
    <defs></defs>
    <g id="Page-1" stroke="none" stroke-width="1" fill="none" fill-rule="evenodd">
        <path d="M73.2995222,0.718145706 C63.4675222,6.28614571 44.0005222,26.5421457 27.7085222,48.1601457 C25.3525222,51.2851457 19.3535222,58.4241457 14.7775222,63.5471457 L14.1445222,64.2551457 L13.3295222,63.6001457 C9.53552222,60.5511457 5.62752222,61.2691457 3.74152222,65.3601457 C2.71052222,67.5981457 2.99252222,68.4541457 5.66852222,71.2021457 L7.36552222,72.9431457 L5.36952222,75.2021457 C-0.111477775,81.4041457 -0.688477775,82.5851457 0.538522225,85.0961457 C1.76152222,87.5991457 5.34652222,89.7751457 7.22552222,89.1551457 C8.09252222,88.8691457 13.8265222,82.4171457 15.0405222,80.3621457 C15.5235222,79.5431457 15.6855222,79.5811457 17.6435222,80.9721457 C21.1355222,83.4541457 23.4985222,83.0351457 25.1155222,79.6471457 C26.3995222,76.9571457 26.0405222,74.7961457 23.8605222,72.0791457 C23.0435222,71.0621457 22.9455222,70.8481457 23.1725222,70.5761457 C23.3175222,70.4021457 24.3825222,69.1351457 25.5385222,67.7601457 C26.6955222,66.3851457 28.5495222,64.1801457 29.6585222,62.8601457 C30.7675222,61.5401457 33.0875222,58.8401457 34.8155222,56.8601457 C38.7855222,52.3091457 45.6385222,43.8441457 48.7895222,39.5981457 C50.1205222,37.8041457 53.1895222,33.8431457 55.6095222,30.7961457 C66.1315222,17.5451457 71.9565222,9.14414571 74.0775222,4.16014571 C75.1995222,1.52514571 75.4885222,0.395145706 75.1035222,0.152145706 C74.7085222,-0.0978542944 74.7825222,-0.120854294 73.2995222,0.718145706 M72.2965222,4.19514571 C70.0115222,8.73014571 63.3435222,18.3181457 56.5355222,26.8601457 C55.0455222,28.7301457 51.7575222,33.0051457 49.2285222,36.3601457 C44.1545222,43.0931457 43.4885222,43.9381457 39.3685222,48.8641457 C31.5315222,58.2311457 26.5855222,64.1641457 24.1985222,67.0601457 C22.7475222,68.8201457 21.0185222,70.8451457 20.3555222,71.5601457 L19.1515222,72.8601457 L18.4805222,72.4771457 C17.2405222,71.7701457 16.2935222,70.9171457 14.8655222,69.2221457 L13.4465222,67.5361457 L13.7565222,66.8981457 C13.9265222,66.5471457 14.8515222,65.4051457 15.8115222,64.3601457 C18.8075222,61.0981457 26.5365222,52.1771457 28.6335222,49.5601457 C29.7355222,48.1851457 31.7495222,45.6651457 33.1105222,43.9601457 C48.4775222,24.7051457 60.2565222,12.1711457 69.4095222,5.33514571 C73.0345222,2.62814571 73.1005222,2.60214571 72.2965222,4.19514571 M62.0675222,14.1021457 C61.0275222,15.2891457 58.7945222,17.8351457 57.1045222,19.7601457 C53.3785222,24.0061457 48.4705222,30.1401457 47.8245222,31.3601457 C47.5915222,31.8001457 49.0545222,30.2671457 52.2155222,26.7601457 C61.7635222,16.1661457 64.6195222,12.7891457 64.4525222,12.2891457 C64.2755222,11.7571457 63.8195222,12.1031457 62.0675222,14.1021457 M42.3755222,37.7701457 C41.3725222,38.7781457 40.3525222,40.4691457 40.5985222,40.7161457 C40.7585222,40.8751457 42.9765222,38.5191457 43.4975222,37.6361457 C43.8445222,37.0471457 43.8495222,36.7601457 43.5115222,36.7601457 C43.4395222,36.7601457 42.9275222,37.2151457 42.3755222,37.7701457 M36.1505222,45.3101457 C31.2465222,51.4101457 30.1575222,52.9601457 30.7755222,52.9601457 C31.4425222,52.9601457 39.1095222,43.5141457 39.1095222,42.6921457 C39.1095222,41.8951457 38.3725222,42.5481457 36.1505222,45.3101457 M24.4575222,59.2101457 C19.1925222,65.9681457 17.4525222,68.3831457 17.6835222,68.6141457 C18.2705222,69.2011457 27.0505222,58.4731457 26.5915222,57.7311457 C26.2865222,57.2371457 25.6515222,57.6771457 24.4575222,59.2101457 M11.6015222,64.0741457 C13.4515222,65.2441457 13.4785222,65.2931457 12.8205222,66.2621457 C11.9985222,67.4741457 12.1765222,68.0831457 14.0215222,70.3831457 C16.6895222,73.7081457 19.2965222,74.6301457 21.0865222,72.8821457 C22.0135222,71.9781457 22.1345222,71.9821457 22.8955222,72.9431457 C24.5385222,75.0161457 24.7615222,76.3331457 23.8755222,78.7081457 C22.7875222,81.6231457 21.1625222,81.9131457 18.1455222,79.7301457 C11.5965222,74.9941457 5.14452222,69.3791457 4.69952222,68.0291457 C4.21452222,66.5611457 4.82352222,64.9141457 6.19952222,63.9671457 C8.17752222,62.6061457 9.31752222,62.6281457 11.6015222,64.0741457 M6.82052222,64.2871457 C6.52852222,65.4531457 8.62852222,68.2491457 10.6785222,69.4211457 C11.6425222,69.9731457 11.4485222,69.5481457 9.80752222,67.5181457 C8.98152222,66.4961457 8.15052222,65.2331457 7.96052222,64.7101457 C7.57052222,63.6341457 7.03452222,63.4351457 6.82052222,64.2871457 M13.5095222,71.8311457 C13.5095222,72.4141457 16.7875222,75.1161457 17.9095222,75.4571457 L18.4095222,75.6101457 L17.9095222,75.0581457 C15.6715222,72.5891457 13.5095222,71.0041457 13.5095222,71.8311457 M14.6965222,78.8941457 C14.7445222,78.9341457 14.4345222,79.3251457 14.0075222,79.7621457 C13.0605222,80.7321457 12.5185222,80.8411457 10.3095222,80.5061457 C8.33552222,80.2051457 7.90952222,80.2511457 7.90952222,80.7601457 C7.90952222,81.2051457 9.30652222,81.4401457 11.2795222,81.3291457 C11.9565222,81.2911457 12.5105222,81.2861457 12.5095222,81.3171457 C12.5085222,81.5651457 9.80352222,84.5671457 9.49152222,84.6661457 C9.27152222,84.7351457 8.66152222,84.6821457 8.13552222,84.5471457 C6.88552222,84.2271457 5.70952222,84.4311457 5.70952222,84.9691457 C5.70952222,85.3261457 5.85552222,85.3601457 7.41052222,85.3601457 L9.11052222,85.3601457 L8.06052222,86.7581457 C6.85052222,88.3671457 6.91152222,88.3491457 5.25252222,87.5661457 C3.81252222,86.8851457 2.57252222,85.8851457 2.04852222,84.9821457 L1.68652222,84.3601457 L2.32252222,84.3601457 C3.08452222,84.3601457 2.87552222,83.9601457 1.90252222,83.5571457 C1.09152222,83.2211457 1.14152222,82.7191457 2.11552222,81.4281457 C2.55952222,80.8411457 2.94252222,80.3601457 2.96752222,80.3601457 C2.99152222,80.3601457 3.32452222,80.4501457 3.70652222,80.5591457 C5.00852222,80.9331457 5.63352222,80.3761457 4.40952222,79.9331457 C3.52152222,79.6121457 3.53652222,79.4741457 4.58952222,78.2791457 L5.45352222,77.2981457 L6.37052222,77.5291457 C7.46052222,77.8041457 9.30952222,77.8351457 9.30952222,77.5791457 C9.30952222,77.3861457 7.65052222,76.7621457 7.12352222,76.7571457 C6.22352222,76.7481457 6.25752222,76.4171457 7.29752222,75.0951457 L8.32952222,73.7811457 L11.4695222,76.3011457 C13.1965222,77.6861457 14.6485222,78.8531457 14.6965222,78.8941457 M20.7095222,77.7001457 C20.7095222,78.2721457 22.3495222,79.2441457 23.0285222,79.0731457 C23.8195222,78.8751457 23.6515222,78.2141457 22.7485222,77.9711457 C21.3405222,77.5911457 20.7095222,77.5081457 20.7095222,77.7001457" id="path0" fill="#000000"></path>
    </g>
</svg>